<svg width="163" height="87" viewBox="0 0 163 87" fill="none" xmlns="http://www.w3.org/2000/svg">
<g style="mix-blend-mode:screen">
<path d="M81.6894 35.5909H67.8377C67.671 35.5931 67.5054 35.5618 67.3509 35.4988C67.1964 35.4359 67.0561 35.3425 66.9382 35.2242C66.8202 35.106 66.7271 34.9652 66.6643 34.8103C66.6015 34.6554 66.5703 34.4894 66.5725 34.3222V20.4318C66.5725 16.4114 68.1652 12.5556 71.0001 9.71272C73.8351 6.86983 77.6802 5.27272 81.6894 5.27272V5.27272C83.6746 5.27272 85.6404 5.66482 87.4744 6.42664C89.3085 7.18845 90.975 8.30506 92.3787 9.71272C93.7825 11.1204 94.896 12.7915 95.6557 14.6307C96.4154 16.4699 96.8064 18.4411 96.8064 20.4318V20.4318C96.8064 22.4225 96.4154 24.3938 95.6557 26.2329C94.896 28.0721 93.7825 29.7433 92.3787 31.1509C90.975 32.5586 89.3085 33.6752 87.4744 34.437C85.6404 35.1988 83.6746 35.5909 81.6894 35.5909V35.5909Z" stroke="#00B37E" stroke-width="2" stroke-linecap="round" stroke-linejoin="round"/>
<path d="M76.4314 18.4545H86.2903" stroke="#996DFF" stroke-width="2" stroke-linecap="round" stroke-linejoin="round"/>
<path d="M76.4314 23.7273H86.2903" stroke="#996DFF" stroke-width="2" stroke-linecap="round" stroke-linejoin="round"/>
<path d="M27.6497 57.9059V60.3311H15.5109V57.9059H27.6497ZM15.9731 48.2358V70.7273H13V48.2358H15.9731ZM30.2376 48.2358V70.7273H27.28V48.2358H30.2376Z" fill="#00B37E"/>
<path d="M42.0066 71.0362C40.8462 71.0362 39.7935 70.8406 38.8487 70.4492C37.9142 70.0476 37.108 69.4863 36.4302 68.7654C35.7627 68.0446 35.2492 67.1898 34.8898 66.2012C34.5303 65.2125 34.3506 64.1312 34.3506 62.9572V62.3084C34.3506 60.949 34.5509 59.739 34.9514 58.6783C35.3519 57.6072 35.8962 56.701 36.5843 55.9595C37.2723 55.218 38.0528 54.6568 38.9258 54.2757C39.7987 53.8947 40.7024 53.7042 41.6369 53.7042C42.8282 53.7042 43.8552 53.9102 44.7178 54.3221C45.5908 54.734 46.3045 55.3107 46.8591 56.0522C47.4136 56.7834 47.8244 57.6484 48.0914 58.6474C48.3584 59.636 48.4919 60.7173 48.4919 61.8913V63.1735H36.0451V60.8409H45.6421V60.6246C45.601 59.8832 45.447 59.1623 45.18 58.462C44.9232 57.7617 44.5124 57.185 43.9476 56.7319C43.3828 56.2788 42.6126 56.0522 41.6369 56.0522C40.99 56.0522 40.3943 56.1912 39.85 56.4693C39.3057 56.737 38.8385 57.1387 38.4482 57.6742C38.058 58.2097 37.755 58.8636 37.5393 59.636C37.3237 60.4084 37.2159 61.2992 37.2159 62.3084V62.9572C37.2159 63.7502 37.3237 64.4968 37.5393 65.1971C37.7653 65.8871 38.0888 66.4947 38.5098 67.0199C38.9412 67.5451 39.4598 67.957 40.0657 68.2557C40.6819 68.5543 41.3802 68.7037 42.1607 68.7037C43.1671 68.7037 44.0195 68.4977 44.7178 68.0858C45.4162 67.6738 46.0272 67.1229 46.551 66.4329L48.2763 67.8077C47.9168 68.3535 47.4598 68.8736 46.9053 69.3679C46.3507 69.8622 45.6678 70.2639 44.8565 70.5728C44.0554 70.8817 43.1055 71.0362 42.0066 71.0362Z" fill="#00B37E"/>
<path d="M54.9156 47V70.7273H52.0504V47H54.9156Z" fill="#00B37E"/>
<path d="M62.3406 57.2262V77.1534H59.4753V54.0131H62.0941L62.3406 57.2262ZM73.5704 62.2312V62.5556C73.5704 63.7708 73.4267 64.8984 73.1391 65.9386C72.8516 66.9684 72.4305 67.8643 71.8759 68.6264C71.3317 69.3885 70.659 69.9806 69.858 70.4029C69.0569 70.8251 68.1378 71.0362 67.1006 71.0362C66.0428 71.0362 65.1082 70.8612 64.2969 70.511C63.4856 70.1609 62.7976 69.6511 62.2327 68.9817C61.6679 68.3123 61.216 67.5091 60.8771 66.5719C60.5485 65.6348 60.3226 64.5792 60.1993 63.4052V61.6751C60.3226 60.4393 60.5537 59.3322 60.8925 58.3539C61.2314 57.3755 61.6782 56.5414 62.2327 55.8514C62.7976 55.1511 63.4805 54.6207 64.2815 54.2603C65.0826 53.8896 66.0068 53.7042 67.0543 53.7042C68.1018 53.7042 69.0313 53.9102 69.8426 54.3221C70.6539 54.7237 71.3368 55.3004 71.8914 56.0522C72.4459 56.804 72.8618 57.7051 73.1391 58.7555C73.4267 59.7956 73.5704 60.9542 73.5704 62.2312ZM70.7052 62.5556V62.2312C70.7052 61.397 70.6179 60.6143 70.4433 59.8832C70.2687 59.1417 69.9966 58.4929 69.6269 57.9368C69.2675 57.3704 68.8053 56.9276 68.2405 56.6083C67.6757 56.2788 67.003 56.114 66.2225 56.114C65.5036 56.114 64.8772 56.2376 64.3432 56.4847C63.8194 56.7319 63.3727 57.0666 63.003 57.4888C62.6333 57.9007 62.3303 58.3745 62.0941 58.91C61.8682 59.4352 61.6987 59.981 61.5858 60.5474V64.5483C61.7911 65.2692 62.0787 65.9489 62.4484 66.5874C62.8181 67.2156 63.3111 67.7253 63.9272 68.1167C64.5434 68.4977 65.3188 68.6882 66.2533 68.6882C67.0235 68.6882 67.6859 68.5286 68.2405 68.2093C68.8053 67.8798 69.2675 67.4318 69.6269 66.8654C69.9966 66.299 70.2687 65.6502 70.4433 64.919C70.6179 64.1776 70.7052 63.3897 70.7052 62.5556Z" fill="#00B37E"/>
<g style="mix-blend-mode:screen" filter="url(#filter0_d_37_755)">
<path d="M78.577 68.9H79.837C86.9303 68.9 90.477 65.7267 90.477 59.38C90.477 53.2433 87.4437 50.175 81.377 50.175H78.577V68.9ZM74.762 46.605H81.377C85.7637 46.605 89.0653 47.8183 91.282 50.245C93.2653 52.4383 94.257 55.5183 94.257 59.485C94.257 63.965 92.8337 67.3133 89.987 69.53C87.4903 71.5133 84.0253 72.505 79.592 72.505H74.762V46.605ZM114.367 64.42H102.572C102.642 66.1 103.097 67.4067 103.937 68.34C104.8 69.3433 105.99 69.845 107.507 69.845C109.607 69.845 111.462 69.39 113.072 68.48V72.015C111.205 72.715 109.315 73.065 107.402 73.065C104.392 73.065 102.152 72.1083 100.682 70.195C99.3984 68.4917 98.7567 66.1117 98.7567 63.055C98.7567 60.115 99.4684 57.7233 100.892 55.88C102.315 54.0367 104.228 53.115 106.632 53.115C109.315 53.115 111.322 54.0717 112.652 55.985C113.795 57.6183 114.367 59.7767 114.367 62.46V64.42ZM110.552 61.095C110.552 59.7883 110.213 58.6917 109.537 57.805C108.837 56.8717 107.915 56.405 106.772 56.405C105.605 56.405 104.613 56.8833 103.797 57.84C102.98 58.7967 102.572 59.8817 102.572 61.095H110.552ZM128.469 57.35C126.929 56.6967 125.471 56.37 124.094 56.37C122.157 56.37 121.189 57.1283 121.189 58.645C121.189 59.3217 121.924 60.0217 123.394 60.745C125.517 61.795 126.882 62.565 127.489 63.055C128.936 64.245 129.659 65.715 129.659 67.465C129.659 69.425 128.877 70.9067 127.314 71.91C126.077 72.68 124.596 73.065 122.869 73.065C120.769 73.065 118.949 72.75 117.409 72.12L117.759 68.515C119.462 69.355 121.131 69.775 122.764 69.775C123.697 69.775 124.467 69.53 125.074 69.04C125.634 68.5967 125.914 68.0133 125.914 67.29C125.914 66.3567 125.202 65.4933 123.779 64.7C122.449 63.9767 121.457 63.4283 120.804 63.055C120.151 62.6817 119.812 62.4833 119.789 62.46C118.366 61.3867 117.654 60.0683 117.654 58.505C117.654 56.5917 118.366 55.1683 119.789 54.235C120.932 53.4883 122.321 53.115 123.954 53.115C125.774 53.115 127.407 53.43 128.854 54.06L128.469 57.35ZM150.023 72.505H145.123L137.563 64.42V72.505H133.818V44.645H137.563V59.485L144.318 53.115H149.148L139.908 61.83L150.023 72.505Z" fill="#996DFF"/>
</g>
</g>
<defs>
<filter id="filter0_d_37_755" x="70.762" y="44.645" width="83.261" height="36.42" filterUnits="userSpaceOnUse" color-interpolation-filters="sRGB">
<feFlood flood-opacity="0" result="BackgroundImageFix"/>
<feColorMatrix in="SourceAlpha" type="matrix" values="0 0 0 0 0 0 0 0 0 0 0 0 0 0 0 0 0 0 127 0" result="hardAlpha"/>
<feOffset dy="4"/>
<feGaussianBlur stdDeviation="2"/>
<feComposite in2="hardAlpha" operator="out"/>
<feColorMatrix type="matrix" values="0 0 0 0 0 0 0 0 0 0 0 0 0 0 0 0 0 0 0.25 0"/>
<feBlend mode="normal" in2="BackgroundImageFix" result="effect1_dropShadow_37_755"/>
<feBlend mode="normal" in="SourceGraphic" in2="effect1_dropShadow_37_755" result="shape"/>
</filter>
</defs>
</svg>
