<svg width="154" height="33" viewBox="0 0 154 33" fill="none" xmlns="http://www.w3.org/2000/svg">
<path fill-rule="evenodd" clip-rule="evenodd" d="M12.9339 3.43149C10.6348 3.43149 8.4295 4.32831 6.80325 5.92521C5.17695 7.52216 4.26299 9.68844 4.26299 11.9476V20.31C4.26272 20.3305 4.26657 20.3508 4.2744 20.3697C4.28222 20.3886 4.29377 20.4057 4.30829 20.4199C4.3228 20.4342 4.33997 20.4453 4.35875 20.4528C4.37753 20.4603 4.39758 20.464 4.41774 20.4637L4.4259 20.4636L12.9339 20.4637C14.0724 20.4637 15.1997 20.2435 16.2516 19.8157C17.3035 19.3878 18.2593 18.7607 19.0646 17.97C19.8698 17.1793 20.5087 16.2405 20.9446 15.2071C21.3805 14.1738 21.6048 13.0662 21.6048 11.9476C21.6048 10.829 21.3805 9.72142 20.9446 8.68808C20.5087 7.65473 19.8698 6.71593 19.0646 5.92521C18.2593 5.13449 17.3035 4.50736 16.2516 4.07952C15.1997 3.65168 14.0724 3.43149 12.9339 3.43149ZM12.9339 21.6666H4.4293C4.24621 21.6684 4.06462 21.6344 3.89507 21.5667C3.72405 21.4985 3.5688 21.3973 3.43844 21.2693C3.30809 21.1413 3.20525 20.9891 3.13593 20.8216C3.06719 20.6555 3.03275 20.4778 3.03455 20.2987V11.9476C3.03455 9.37049 4.0771 6.8986 5.9334 5.0758C7.78976 3.25295 10.3079 2.22858 12.9339 2.22858C14.2342 2.22858 15.5216 2.48006 16.7228 2.96862C17.924 3.45718 19.0153 4.17323 19.9344 5.0758C20.8536 5.97837 21.5826 7.04979 22.08 8.22883C22.5773 9.40788 22.8333 10.6715 22.8333 11.9476C22.8333 13.2237 22.5773 14.4873 22.08 15.6664C21.5826 16.8454 20.8536 17.9168 19.9344 18.8194C19.0153 19.722 17.924 20.438 16.7228 20.9266C15.5216 21.4151 14.2342 21.6666 12.9339 21.6666Z" fill="#00B37E"/>
<path fill-rule="evenodd" clip-rule="evenodd" d="M9.09015 10.7583C9.09015 10.4262 9.36515 10.1569 9.70437 10.1569H15.7599C16.0991 10.1569 16.3741 10.4262 16.3741 10.7583C16.3741 11.0905 16.0991 11.3598 15.7599 11.3598H9.70437C9.36515 11.3598 9.09015 11.0905 9.09015 10.7583Z" fill="#996DFF"/>
<path fill-rule="evenodd" clip-rule="evenodd" d="M9.09015 13.9297C9.09015 13.5975 9.36515 13.3282 9.70437 13.3282H15.7599C16.0991 13.3282 16.3741 13.5975 16.3741 13.9297C16.3741 14.2619 16.0991 14.5311 15.7599 14.5311H9.70437C9.36515 14.5311 9.09015 14.2619 9.09015 13.9297Z" fill="#996DFF"/>
<path d="M38.1135 11.4652V13.2668H28.9048V11.4652H38.1135ZM29.2554 4.28167V20.9896H27V4.28167H29.2554ZM40.0768 4.28167V20.9896H37.8331V4.28167H40.0768Z" fill="#00B37E"/>
<path d="M49.005 21.2191C48.1247 21.2191 47.3261 21.0738 46.6094 20.7831C45.9004 20.4847 45.2888 20.0678 44.7747 19.5323C44.2683 18.9968 43.8787 18.3618 43.606 17.6274C43.3334 16.893 43.197 16.0897 43.197 15.2176V14.7356C43.197 13.7258 43.3489 12.8269 43.6528 12.0389C43.9566 11.2433 44.3695 10.5701 44.8915 10.0193C45.4135 9.46848 46.0056 9.05154 46.6678 8.76849C47.33 8.48543 48.0156 8.3439 48.7246 8.3439C49.6283 8.3439 50.4074 8.49691 51.0618 8.80291C51.724 9.10892 52.2655 9.53733 52.6862 10.0881C53.1069 10.6313 53.4185 11.2739 53.6211 12.016C53.8236 12.7504 53.9249 13.5537 53.9249 14.4258V15.3782H44.4825V13.6455H51.763V13.4848C51.7318 12.934 51.615 12.3985 51.4124 11.8783C51.2176 11.3581 50.906 10.9297 50.4775 10.5931C50.049 10.2564 49.4647 10.0881 48.7246 10.0881C48.2338 10.0881 47.7819 10.1914 47.369 10.398C46.9561 10.5969 46.6016 10.8952 46.3055 11.293C46.0095 11.6908 45.7797 12.1766 45.6161 12.7504C45.4524 13.3242 45.3706 13.9859 45.3706 14.7356V15.2176C45.3706 15.8066 45.4524 16.3613 45.6161 16.8815C45.7875 17.394 46.0329 17.8454 46.3523 18.2356C46.6795 18.6257 47.0729 18.9317 47.5326 19.1536C48 19.3754 48.5298 19.4864 49.1219 19.4864C49.8854 19.4864 50.532 19.3334 51.0618 19.0274C51.5916 18.7213 52.0551 18.3121 52.4525 17.7995L53.7613 18.8208C53.4886 19.2263 53.1419 19.6126 52.7212 19.9798C52.3005 20.347 51.7825 20.6454 51.167 20.8749C50.5593 21.1044 49.8387 21.2191 49.005 21.2191Z" fill="#00B37E"/>
<path d="M58.798 3.36365V20.9896H56.6244V3.36365H58.798Z" fill="#00B37E"/>
<path d="M64.4308 10.9603V25.7633H62.2571V8.57341H64.2438L64.4308 10.9603ZM72.95 14.6782V14.9192C72.95 15.8219 72.8409 16.6596 72.6228 17.4323C72.4046 18.1973 72.0852 18.8629 71.6645 19.429C71.2516 19.9951 70.7413 20.435 70.1336 20.7486C69.5259 21.0623 68.8287 21.2191 68.0418 21.2191C67.2393 21.2191 66.5304 21.0891 65.9149 20.829C65.2994 20.5689 64.7775 20.1902 64.349 19.6929C63.9205 19.1957 63.5777 18.5989 63.3206 17.9028C63.0713 17.2066 62.8999 16.4225 62.8064 15.5504V14.2651C62.8999 13.3471 63.0752 12.5247 63.3323 11.798C63.5894 11.0712 63.9283 10.4515 64.349 9.93896C64.7775 9.41875 65.2956 9.02477 65.9032 8.75701C66.5109 8.48161 67.2121 8.3439 68.0067 8.3439C68.8014 8.3439 69.5065 8.49691 70.1219 8.80291C70.7374 9.10127 71.2555 9.52968 71.6762 10.0881C72.0969 10.6466 72.4124 11.316 72.6228 12.0963C72.8409 12.869 72.95 13.7296 72.95 14.6782ZM70.7764 14.9192V14.6782C70.7764 14.0586 70.7101 13.4772 70.5777 12.934C70.4453 12.3832 70.2388 11.9012 69.9583 11.4881C69.6857 11.0674 69.3351 10.7384 68.9066 10.5012C68.4781 10.2564 67.9678 10.134 67.3757 10.134C66.8303 10.134 66.3551 10.2258 65.95 10.4094C65.5526 10.5931 65.2137 10.8417 64.9333 11.1553C64.6528 11.4613 64.423 11.8133 64.2438 12.2111C64.0724 12.6012 63.9439 13.0067 63.8582 13.4274V16.3995C64.014 16.935 64.2321 17.4399 64.5126 17.9143C64.793 18.3809 65.167 18.7596 65.6345 19.0503C66.1019 19.3334 66.6901 19.4749 67.3991 19.4749C67.9834 19.4749 68.4859 19.3563 68.9066 19.1192C69.3351 18.8744 69.6857 18.5416 69.9583 18.1208C70.2388 17.7001 70.4453 17.2181 70.5777 16.6749C70.7101 16.1241 70.7764 15.5389 70.7764 14.9192Z" fill="#00B37E"/>
<g style="mix-blend-mode:screen" filter="url(#filter0_d_404_416)">
<path d="M77.3407 21.5H78.2407C83.3074 21.5 85.8407 19.2333 85.8407 14.7C85.8407 10.3167 83.6741 8.125 79.3407 8.125H77.3407V21.5ZM74.6157 5.575H79.3407C82.4741 5.575 84.8324 6.44167 86.4157 8.175C87.8324 9.74167 88.5407 11.9417 88.5407 14.775C88.5407 17.975 87.5241 20.3667 85.4907 21.95C83.7074 23.3667 81.2324 24.075 78.0657 24.075H74.6157V5.575ZM102.905 18.3H94.4798C94.5298 19.5 94.8548 20.4333 95.4548 21.1C96.0715 21.8167 96.9215 22.175 98.0048 22.175C99.5048 22.175 100.83 21.85 101.98 21.2V23.725C100.646 24.225 99.2965 24.475 97.9298 24.475C95.7798 24.475 94.1798 23.7917 93.1298 22.425C92.2131 21.2083 91.7548 19.5083 91.7548 17.325C91.7548 15.225 92.2631 13.5167 93.2798 12.2C94.2965 10.8833 95.6631 10.225 97.3798 10.225C99.2965 10.225 100.73 10.9083 101.68 12.275C102.496 13.4417 102.905 14.9833 102.905 16.9V18.3ZM100.18 15.925C100.18 14.9917 99.9381 14.2083 99.4548 13.575C98.9548 12.9083 98.2965 12.575 97.4798 12.575C96.6465 12.575 95.9381 12.9167 95.3548 13.6C94.7715 14.2833 94.4798 15.0583 94.4798 15.925H100.18ZM112.978 13.25C111.878 12.7833 110.836 12.55 109.853 12.55C108.469 12.55 107.778 13.0917 107.778 14.175C107.778 14.6583 108.303 15.1583 109.353 15.675C110.869 16.425 111.844 16.975 112.278 17.325C113.311 18.175 113.828 19.225 113.828 20.475C113.828 21.875 113.269 22.9333 112.153 23.65C111.269 24.2 110.211 24.475 108.978 24.475C107.478 24.475 106.178 24.25 105.078 23.8L105.328 21.225C106.544 21.825 107.736 22.125 108.903 22.125C109.569 22.125 110.119 21.95 110.553 21.6C110.953 21.2833 111.153 20.8667 111.153 20.35C111.153 19.6833 110.644 19.0667 109.628 18.5C108.678 17.9833 107.969 17.5917 107.503 17.325C107.036 17.0583 106.794 16.9167 106.778 16.9C105.761 16.1333 105.253 15.1917 105.253 14.075C105.253 12.7083 105.761 11.6917 106.778 11.025C107.594 10.4917 108.586 10.225 109.753 10.225C111.053 10.225 112.219 10.45 113.253 10.9L112.978 13.25ZM128.374 24.075H124.874L119.474 18.3V24.075H116.799V4.175H119.474V14.775L124.299 10.225H127.749L121.149 16.45L128.374 24.075Z" fill="#996DFF" fill-opacity="0.9" shape-rendering="crispEdges"/>
</g>
<defs>
<filter id="filter0_d_404_416" x="70.6157" y="4.175" width="61.7578" height="28.3" filterUnits="userSpaceOnUse" color-interpolation-filters="sRGB">
<feFlood flood-opacity="0" result="BackgroundImageFix"/>
<feColorMatrix in="SourceAlpha" type="matrix" values="0 0 0 0 0 0 0 0 0 0 0 0 0 0 0 0 0 0 127 0" result="hardAlpha"/>
<feOffset dy="4"/>
<feGaussianBlur stdDeviation="2"/>
<feComposite in2="hardAlpha" operator="out"/>
<feColorMatrix type="matrix" values="0 0 0 0 0 0 0 0 0 0 0 0 0 0 0 0 0 0 0.25 0"/>
<feBlend mode="normal" in2="BackgroundImageFix" result="effect1_dropShadow_404_416"/>
<feBlend mode="normal" in="SourceGraphic" in2="effect1_dropShadow_404_416" result="shape"/>
</filter>
</defs>
</svg>
